<?xml version="1.0" encoding="utf-8"?>
<!-- Generator: Adobe Illustrator 27.0.0, SVG Export Plug-In . SVG Version: 6.00 Build 0)  -->
<svg version="1.1"
	 id="svg5409" xmlns:cc="http://creativecommons.org/ns#" xmlns:svg="http://www.w3.org/2000/svg" xmlns:rdf="http://www.w3.org/1999/02/22-rdf-syntax-ns#" xmlns:dc="http://purl.org/dc/elements/1.1/" xmlns:sodipodi="http://sodipodi.sourceforge.net/DTD/sodipodi-0.dtd" xmlns:inkscape="http://www.inkscape.org/namespaces/inkscape" sodipodi:docname="logo_black.svg"
	 xmlns="http://www.w3.org/2000/svg" xmlns:xlink="http://www.w3.org/1999/xlink" x="0px" y="0px" viewBox="0 0 91 100"
	 style="enable-background:new 0 0 91 100;" xml:space="preserve">
<style type="text/css">
	.st0{fill:#3F3B3C;}
</style>
<sodipodi:namedview  bordercolor="#666666" borderopacity="1.0" id="base" inkscape:current-layer="layer1" inkscape:cx="47.319097" inkscape:cy="49.174871" inkscape:document-units="mm" inkscape:pageopacity="0.0" inkscape:pageshadow="2" inkscape:window-height="1013" inkscape:window-maximized="1" inkscape:window-width="1920" inkscape:window-x="-9" inkscape:window-y="-9" inkscape:zoom="4.59375" pagecolor="#ffffff" showgrid="false" units="px">
	</sodipodi:namedview>
<g>
	<g>
		<g>
			<g>
				<path class="st0" d="M14.3,27.9c-0.4,0-0.7,0-0.7,0c0,0,0,0.1,0,0.1C13.8,28,14.1,27.9,14.3,27.9z"/>
				<path class="st0" d="M14.9,26.7l-0.2,0c0,0,0,0,0,0.1C14.8,26.8,14.8,26.8,14.9,26.7z"/>
				<path class="st0" d="M13.6,28c0.1,0.3,0.4,0.6,0,1c-0.4,0-1.2,0.1-1.6,0.1c-0.4,0.2,0,0.4,0,0.5c-0.2,0-0.4,0-0.6,0
					c-0.2,0-0.4,0-0.4,0.1c-0.1,0.1-0.1,0.2,0.1,0.3c0.3,0.1,0.6,0.1,1,0.2C14,29.1,18.1,28.3,13.6,28z"/>
				<path class="st0" d="M16.6,27l-2,0.2c-0.2,0.2-0.5,0.4-0.2,0.6C15.4,27.6,16,27.4,16.6,27z"/>
				<path class="st0" d="M77.6,87.9c0,0,0.1,0,0.2,0.3C77.7,88.1,77.7,88,77.6,87.9c0,0-0.1,0.1-0.2-0.1c0.7,1.1,1.6,2.4,2.5,3.6
					c0.2,0.1,0.4,0.2,0.6,0.3c-2.2-3-3.8-6.3-5.4-8.9c0.4,1,0.8,1.8,1.2,2.6C76.7,86.2,77.1,87,77.6,87.9z"/>
				<path class="st0" d="M81,91.6c0.1,0.1,0.2,0.2,0.2,0.3C81.1,91.6,81.1,91.6,81,91.6z"/>
				<path class="st0" d="M79.9,30.1c0.1-2.1-0.1-3.9-0.5-5.7c0.2,1.9,0.2,3.9,0.1,5.7c-0.1,0.9-0.1,1.8-0.2,2.7
					c-0.1,0.9-0.2,1.7-0.3,2.4c0.2-0.8,0.3-1.7,0.5-2.6C79.7,31.8,79.8,31,79.9,30.1z"/>
				<path class="st0" d="M76.6,16.3c0.7,2.2,1.2,4,1.8,5.8c-0.3-1.9-0.8-3.7-1.5-5.4C76.9,16.6,76.8,16.5,76.6,16.3z"/>
				<path class="st0" d="M78,18.6c0.6,2.1,1.1,3.9,1.5,5.8C79.2,22.3,78.7,20.2,78,18.6z"/>
				<path class="st0" d="M77.8,65.8c0.1,0.7,0.2,1.3,0.3,1.8c0.1,0.5,0.2,0.8,0.2,1.1c0.1,0.2,0.3,0.5,0.6,0.9c0-0.1,0-0.2,0-0.3
					c-0.4-1.5-0.5-3-0.6-4.5C78,64.1,78,63.5,77.9,63c0,0.5-0.1,0.9-0.1,1.4C77.8,64.9,77.8,65.4,77.8,65.8z"/>
				<path class="st0" d="M78.3,68.7C77,66.8,78.6,70.6,78.3,68.7L78.3,68.7z"/>
				<path class="st0" d="M73.1,58.3l0-0.3c0-0.2,0.1-0.5,0.1-0.7C73.2,57.6,73.1,57.9,73.1,58.3z"/>
				<path class="st0" d="M82.2,39.7c-0.4,1.4-0.9,2.9-1.3,4.3c1.1-2.9,1.9-5.8,2.2-8.4c-0.1,0.4-0.3,0.7-0.4,1.1
					C82.7,37.4,82.6,38.6,82.2,39.7z"/>
				<path class="st0" d="M73.5,69.8c-0.4-2-0.4-4-0.6-5.9c0-1,0-2,0-2.9c0-0.5,0-1,0-1.5l0.2-1.4c0.2-1,0.4-1.9,0.5-2.9
					c0.3-0.9,0.5-1.9,0.8-2.8c0.4-1.9,1.2-3.6,1.8-5.4c0.3-0.9,0.6-1.7,1-2.6c0.3-0.8,0.6-1.6,0.9-2.5c0.5-1.6,0.9-3.3,1.2-4.9
					c0.4-2.8,1-6.6,0.9-10.4c0-1.9-0.3-3.7-0.8-5.4c-0.3-0.8-0.5-1.6-0.8-2.3c-0.2-0.3-0.3-0.7-0.5-1c-0.2-0.3-0.4-0.6-0.6-0.9
					c0.1,0.5,0.3,1,0.4,1.5c-0.3-0.7-0.7-1.3-1-1.8c-1.5-3.7-4-6.6-7-7.7c-3-1.1-6.6-0.7-10.3,1c-0.6,0.2-1,0.6-1.4,0.9
					c-0.4,0.3-0.9,0.7-1.4,1c-0.5,0.3-1.1,0.7-1.6,1.1c-0.5,0.4-1.1,0.8-1.6,1.2c0,0,0,0,0.1,0c-5,4.1-10.3,7.7-16.3,10.7
					c-1.4,0.7-2.9,1.3-4.4,1.9c-1.5,0.6-3,1.1-4.5,1.5c-1.1,0.4-1.3,0-2,0.1c-3.2,0.4-5.6,0.6-9.1,0.9c0,0,0-0.2,0-0.3
					c-0.5,0.1-1,0.2-1.4,0.2c1.6-1.2,5.7-2.2,1.2-2.2l0,0c0.2-0.1,0.5-0.1,0.7-0.2c0,0,0,0,0.1,0l0,0c1-0.3,1.6-0.6,2.1-1
					c-0.6,0.1-1.3,0.3-1.9,0.3c0.1-0.1,0.2-0.3,0.1-0.4c0.1,0,0.1-0.1,0.2-0.1c0.3,0,0.5-0.1,0.5-0.1c0.1-0.1,0.1-0.2,0.2-0.2
					c1.6-0.7,4.1-1.5,3.6-1.7c-0.4-0.1-1.6,0.4-2.9,0.7c-0.1,0-0.2,0-0.3,0c1.8-0.4-0.1-0.6,0.9-0.9c1.4-0.3,2.8-0.7,4.2-1.1
					c5.7-1.6,10.2-3.6,15.1-6.6l0.6-0.4c1.2-0.8,2.3-1.4,3.4-2.2c1.1-0.8,2.3-1.4,3.4-2.3c-0.1,0.2-0.2,0.3-0.3,0.5
					c1.8-1.3,3.5-2.6,5.4-4.1c2.3-1.8,4.7-3.4,7.6-4.5C62.3,1.6,65.6,1,69,1.5c3.5,0.6,6.9,2.3,9.4,4.7c1.3,1.2,2.3,2.6,3.3,4
					c0.9,1.5,1.7,3,2.3,4.7c-1.1-2.6-2.6-5.1-4.5-7.4c-0.8-1-1.8-2-2.9-2.8c1.1,0.9,2,1.8,2.9,2.8c1.6,2,2.8,4.3,3.7,6.5
					c0.9,2.2,1.6,4.3,2.3,6.2c0,0.4-0.1,0.4,0,0.8c0.4,2.8,0.2,5.6,0.5,8c0.1,0,0,1.2,0.2,0.8c0,1.2-0.2,2.5-0.4,3.8
					c-0.2,1.3-0.4,2.6-0.6,3.7c-0.2,1-0.3,2.1-0.4,3.1c-0.3,1-0.5,2.1-0.9,3.1c-0.3,1-0.6,2-1,3L82.2,48c-0.2,0.5-0.3,0.9-0.5,1.3
					c-0.3,0.8-0.6,1.7-0.9,2.5c-0.3,0.8-0.5,1.7-0.7,2.6c-0.2,0.9-0.4,1.7-0.6,2.6c-0.2,1.8-0.5,3.6-0.5,5.4c0,0.9-0.1,1.9-0.1,2.9
					c0,0.5,0,1,0,1.5c0,0.5,0,1,0.1,1.4c-0.2-0.7-0.2-1.4-0.3-2c-0.1-0.7-0.2-1.4-0.2-2.1c0-0.7,0-1.4,0-2.1c0-0.7,0-1.5,0.1-2.2
					c0.1-0.7,0.3-1.4,0.4-2c0.1-0.3,0.1-0.7,0.2-1c0.1-0.3,0.2-0.6,0.2-1c0.3-1.3,0.5-2.5,0.7-3.7c0.1-0.5,0.3-1,0.4-1.6
					c-0.2,0.8-0.6,1.5-0.7,2.3c-0.2,0.8-0.4,1.5-0.5,2.3l-0.3,1.1c-0.1,0.4-0.1,0.8-0.2,1.2c-0.1,0.8-0.2,1.5-0.3,2.3
					c-0.2,0.8-0.2,1.7-0.3,2.5l-0.1,1.3l-0.1,0.6l0,0.6l0-0.1c-0.1-1.3,0-2.6,0-4c0.2-1.3,0.5-2.5,0.7-3.6c0.1-0.6,0.2-1.2,0.4-1.7
					c0.1-0.6,0.2-1.1,0.3-1.6c0-0.3,0.1-0.5,0.1-0.8c0-0.5,0.2-1.1,0.3-1.6c-0.4,0.9-0.5,1.9-0.8,2.9l-0.3,1.4l-0.2,0.7l-0.1,0.7
					c-0.1,1.2-0.3,2.4-0.4,3.6c-0.1,0.7-0.2,1.5-0.3,2.2c0-0.1,0-0.2,0-0.2c0-0.6-0.9-2.7-1.3-1.7c-0.3,2.6-0.3,5.8,0.1,8.3
					c0.1,0.6,0.2,1.2,0.2,1.7c0.1,0.5,0.2,1,0.3,1.3c0.1,0.4,0.1,0.7,0.2,0.9c0,0.2,0.1,0.3,0,0.3c-0.1,0.1-0.3-0.4-0.5-1.1
					c-0.1-0.4-0.3-0.8-0.4-1.3c-0.1-0.5-0.2-1-0.3-1.6c-0.1-0.5-0.2-1.1-0.3-1.6c-0.1-0.5-0.1-1-0.1-1.4c-0.1-0.8-0.1-1.3-0.1-1.2
					c0,0.5-0.1,1-0.1,1.5c-0.1-0.5-0.2-1-0.2-1.4c0-0.5-0.1-1.1,0-1.7c0-0.6,0.1-1.1,0-1.4c-0.1-0.6-0.1-1.3-0.1-1.9
					c0-0.7,0.1-1.3,0.2-2c0.2-1.4,0.4-2.8,0.7-4.2c0.1-0.9,0.3-1.9,0.4-2.9c0.2-1,0.5-2.1,0.7-3.2c-0.2-0.1,0.3-1.1,0-0.8
					c0.8-1.9,1.8-4.1,1.6-5.1l0-0.1c0.1-0.1,0.1-0.3,0.1-0.6c1.3-3.2,1.4-5.6,1.6-8.7c0.1-1,0.3-2.1,0.4-3.2c0,0.7-0.3,1.7-0.3,2.5
					c0,0.2,0,0.5,0,0.7c-0.4,2.7-0.8,5.2-1.5,7.8c0,0.2-0.1,0.6-0.1,0.9c-0.1,0.2-0.1,0.3-0.2,0.5c0,0.1,0,0.1,0,0.2
					c-0.3,1.2-0.8,2.5-1.2,3.7c-0.4,1.2-0.8,2.4-1.1,3.5c-0.2,0.5-0.3,1-0.5,1.5c-0.1,0.5-0.3,1-0.4,1.5c-0.3,1-0.6,2-0.9,3
					c-0.2,1-0.4,2.1-0.6,3.1c-0.1,0.5-0.2,1-0.3,1.5c-0.1,0.5-0.1,1-0.2,1.6l0-1.6c0-0.5,0.1-1,0.1-1.5c0.1-1,0.2-2,0.3-3
					c-0.2,1.3-0.3,2.5-0.5,3.7c-0.1,0.6-0.1,1.2-0.1,1.8c0,0.6,0,1.2,0,1.7c0,0.4-0.1,0.7-0.1,1c-0.1,0.7,0,1.5,0,2.2
					c0-0.7,0-1.4,0.1-2c0.1,1.4,0.2,2.7,0.3,4c0.5,3.6,1.2,7.2,2.4,10.7c1.2,3.5,2.7,6.8,4.5,10c-0.2-0.1-0.3-0.1-0.5-0.2
					c-1.9-3-3.3-6.3-4.6-8.9c0.6,2,1.3,3.2,2.2,5c0,0-0.1,0.1-0.2-0.1c0.3,0.6,0.7,1.2,1,1.8c0.4,0.6,0.7,1.2,1.1,1.9
					c-0.4-0.3-0.9-0.6-1.3-1c-0.5-0.6-1-1.6-1.6-2.5c-2.1-4.3-3.3-8.8-4.1-13.5c-0.5-4.2-0.3-8.5,0.4-12.7c-0.1,0.5-0.1,1-0.2,1.5
					c0,0.5,0,1,0,1.5c0,1-0.1,2,0,2.9C73,66.2,73.1,68,73.5,69.8z M25,25.9c0.4-0.1,0.7-0.3,1.1-0.4l-0.2,0
					C25.6,25.5,25.3,25.7,25,25.9z M33.5,23.1c-2.5,0.8-5.6,2.2-8.8,3.2c0,0,0,0.1,0,0.1C27.4,25.8,30.6,24.4,33.5,23.1z M43.7,20.1
					L43.7,20.1L43.7,20.1L43.7,20.1z M78.2,12.7c-0.4-0.5-0.9-1.1-1.4-1.7c-0.5-0.5-1-1.1-1.6-1.6c-1.1-1-2.4-2-3.9-2.6
					c-0.9-0.4-1.9-0.3-3-0.6c-1.5-0.1-2.5,0-3.7,0.3c0.3,0,0.6,0,0.9,0.1c-1.1,0-1.9,0.2-2.7,0.6c-0.8,0.3-1.6,0.6-2.7,0.9
					c0,0.1-0.2,0.4-0.5,0.5c-0.4,0.2-0.7,0.3-1.1,0.5c-0.4,0.2-0.7,0.4-1,0.5c-0.7,0.3-1.3,0.8-1.8,1.2c-0.7,0.5-1.3,1-1.9,1.5
					c-0.3,0.3-0.6,0.5-0.9,0.7c-0.3,0.3-0.6,0.6-0.9,0.8c-0.3,0.2-0.8,0.9-1.3,1.4c-0.7,0.6-1.5,1.2-2.3,1.7c0,0,0.1,0,0.1,0
					c0.7-0.4,1.3-0.9,1.9-1.4c0.9-0.8,1.8-1.6,2.8-2.4c0.8-0.7,1.6-1.5,2.4-2c2-1.5,4-2.6,6.1-3.4c2-0.8,4.1-1.2,6.2-1.1
					c0.9,0.1,1.8,0.1,2.6,0.3c1.3,0.3,2.7,1.1,3.8,2c1.1,0.9,2.1,1.9,2.9,2.6C77.6,11.9,77.9,12.4,78.2,12.7z M83.5,14.9
					c-0.9-1.9-1.9-3.9-3.3-5.7c-1.3-1.8-2.9-3.4-4.6-4.6c-0.3-0.2-0.8-0.5-1.3-0.8c-0.5-0.2-1.1-0.5-1.7-0.8c-0.6-0.2-1.3-0.4-2-0.6
					c-0.7-0.1-1.4-0.2-2-0.2c-0.6,0-1.2,0-1.8,0.1c-0.5,0.1-1,0.2-1.3,0.3c-0.7,0.2-0.9,0.5-0.5,0.7c0.9-0.5,3-0.9,5.6-0.3
					c2.6,0.6,5.3,2.3,7.3,4.4c2,2.1,3.2,4.5,4,6c0.4,0.8,0.7,1.3,1,1.6C83.2,15.4,83.4,15.3,83.5,14.9z M81.9,47.2
					c0.3-0.8,0.5-1.6,0.8-2.3c0.3-0.8,0.5-1.6,0.9-2.5l-0.8,2.4C82.5,45.7,82.2,46.4,81.9,47.2z M82.9,30.6c0,2.4-0.3,5-0.9,7.4
					c-0.6,2.5-1.3,4.9-2.2,7.2c-0.7,1.8-1.4,3.5-2.1,5.2c-0.2,0.4-0.4,0.8-0.5,1.3c-0.1,0.4-0.2,0.9-0.3,1.3
					c-0.2,0.8-0.4,1.7-0.4,2.5l0.3,0.1l0-0.4c0.4-1.2,0.8-2.1,1.2-3l0,0.2l0.1-0.3c0.2-0.6,0.6-1.3,0.8-2.1c0.1-0.4,0.2-0.7,0.3-1.1
					l0.6-1.5l0.7-1.7c0.5-1.1,0.8-2.2,1.2-3.4c0.4-1.1,0.6-2.3,0.9-3.4c0.2-1.1,0.4-2.2,0.5-3.3c0.3-2.7,0.2-5,0.1-7.6
					C83.1,28.7,82.9,29.8,82.9,30.6z"/>
				<path class="st0" d="M73.6,63.1c0,0.8,0,1.6,0.1,2.4c0.1,0.8,0.1,1.6,0.2,2.4c0.2,1.2,0.5,2.4,0.7,3.6c0.7,2.8,1.4,5.8,2.6,8.8
					c1.1,3,2.5,5.9,4.2,8.4c0.3,0,0.6-0.1,0.7-0.5c-1.6-2.8-3-5.8-4.1-8.9c-0.6-1.5-1-3.1-1.4-4.7c-0.3-1.6-0.7-3.2-0.7-4.8l0-0.1
					c-0.2-0.7-0.4-1.5-0.5-2.4c-0.1-0.9-0.1-1.8-0.2-2.8c0-1,0.1-2,0.1-2.9c0-0.5,0-1,0-1.4c0-0.5,0.1-0.9,0.1-1.4
					c0-0.9,0.1-1.8,0.2-2.7c0.1-0.9,0.3-1.8,0.5-2.7c0.2-0.9,0.3-1.8,0.6-2.7c0.3-0.9,0.5-1.7,0.8-2.6c-0.3,0.6-0.5,1.2-0.7,1.8
					c-0.3,0.6-0.5,1.2-0.7,1.8c-0.4,1.2-0.7,2.5-1.1,3.7c-0.2,1.3-0.5,2.5-0.7,3.8c-0.2,0.6-0.2,1.3-0.2,1.9
					C73.7,61.8,73.7,62.4,73.6,63.1z"/>
				<path class="st0" d="M78.4,22.2c0.2,1.2,0.3,2.5,0.4,3.8c0.2,3.6-0.1,7-0.7,10.4c0.6-2.5,1.1-5,1.3-7.5
					C79.5,26.4,79.1,24.2,78.4,22.2z"/>
				<path class="st0" d="M77.6,39.2c0.2-0.9,0.4-1.8,0.6-2.8c-0.4,1.8-1,3.6-1.7,5.4c-0.3,0.9-0.7,1.7-1,2.6l-0.6,1.4l-0.6,1.5
					c-2.4,6.5-3.4,13.5-2.6,20.2c0,0.8,0.2,1.5,0.3,2.3c-0.6-6.3,0.3-12.6,2.1-18.3l0.3-1.1l0.4-1c0.3-0.7,0.5-1.4,0.8-2.1
					c0.5-1.3,1-2.6,1.5-3.9c0.9-2.5,1.6-5,1.9-7.5c0-0.2,0.1-0.4,0.1-0.6c-0.5,2.3-1.2,4.5-2,6.7c-0.4,1.1-0.9,2.2-1.3,3.2l-1.4,3.5
					C75.6,45.2,76.8,42.3,77.6,39.2z"/>
				<path class="st0" d="M73.6,61.5c0,0.4-0.1,0.7-0.1,1.1c0,0.4,0,0.8,0,1.2c0-0.2,0.1-0.5,0.1-0.7C73.6,62.6,73.6,62.1,73.6,61.5z
					"/>
				<path class="st0" d="M78,52.1l0-0.1c0.3-1.1,0.8-2.1,1.1-3.2c0.4-1.5,1.1-3.2,1.7-4.9C79.6,47.1,78.6,49.8,78,52.1z"/>
				<path class="st0" d="M83.9,43.6c0.1-0.4,0.4-1.1,0.6-1.5l0.1-0.7c-0.1,0.4-0.2,0.7-0.4,1.1L83.9,43.6z"/>
				<path class="st0" d="M85.5,20.2c1.4,7.1,0.8,13.8-0.8,20.2c0,0.3-0.1,0.6-0.1,1c1.4-4.2,2.2-8.6,2-12.7c0-0.8-0.3-2-0.3-2.8
					c-0.1-3.8-0.9-7.5-2.3-10.9l0.5,1.2l0.4,1.3c0.3,0.8,0.5,1.7,0.7,2.6L85.5,20.2z"/>
			</g>
		</g>
	</g>
</g>
<g>
	<g>
		<g>
			<g>
				<path class="st0" d="M12.2,84.5c0.2,0.3,0.4,0.6,0.4,0.6c0,0,0,0,0.1-0.1C12.5,84.8,12.3,84.7,12.2,84.5z"/>
				<path class="st0" d="M10.9,84.4l0.1,0.2c0,0,0,0,0-0.1C11.1,84.5,11,84.5,10.9,84.4z"/>
				<path class="st0" d="M12.6,85c0.2-0.2,0.4-0.6,0.8-0.5c0.2,0.3,0.6,0.9,0.8,1.3c0.3,0.2,0.3-0.2,0.4-0.3
					c0.2,0.3,0.4,0.6,0.5,0.5c0.3,0.1,0.3-0.3-0.1-0.9C13.4,84.4,10.9,80.9,12.6,85z"/>
				<path class="st0" d="M10.5,82.7c0.3,0.6,0.7,1.2,1,1.8c0.3,0.1,0.6,0.2,0.7-0.1C11.5,83.6,11,83.1,10.5,82.7z"/>
				<path class="st0" d="M56.8,25.2c0,0,0-0.1,0.3-0.2C57,25,56.9,25.1,56.8,25.2c0,0,0.1,0.1,0,0.2c1-0.9,2.2-1.9,3.5-2.7
					c0.1-0.2,0.2-0.4,0.3-0.5c-3.3,2-6.3,4.5-7.8,7.1c0.3-0.4,0.7-0.8,1-1.2c0.3-0.3,0.6-0.7,0.9-1C55.3,26.4,56,25.9,56.8,25.2z"/>
				<path class="st0" d="M60.7,21.5c0.1-0.1,0.2-0.1,0.3-0.2C60.7,21.4,60.6,21.5,60.7,21.5z"/>
				<path class="st0" d="M55.9,85.3c-1.7,2.5-3.8,4.3-6.2,5.5c2.6-1.1,5.1-3,6.5-5.4c1.5-2.4,1.9-4.9,2-6.9
					c-0.1,1.1-0.3,2.3-0.7,3.5C57.1,83.2,56.6,84.3,55.9,85.3z"/>
				<path class="st0" d="M37.3,92.8c3.4,0.8,6.4,0.5,9.2-0.2c-2.9,0.6-5.7,0.6-8.4,0.2C37.8,92.8,37.5,92.8,37.3,92.8z"/>
				<path class="st0" d="M41.2,92.7c3.2,0.1,6-0.6,8.5-1.8C46.8,92.1,43.8,92.5,41.2,92.7z"/>
				<path class="st0" d="M42.7,45.9c-0.3-1-0.4-1.8-0.5-2.5c-0.1-0.7-0.1-1.2-0.1-1.5c-0.1-0.3-0.3-0.8-0.4-1.4c0,0.1,0,0.3,0,0.4
					c0,2.3,0.4,4.4,0.8,6.6c0.2,0.9,0.5,1.7,0.8,2.3c-0.1-0.6-0.2-1.3-0.3-1.9C42.8,47.2,42.7,46.6,42.7,45.9z"/>
				<path class="st0" d="M42.1,41.9C43.1,44.7,42,39,42.1,41.9L42.1,41.9z"/>
				<path class="st0" d="M49.4,53.2l0.1,0.3c0.1,0.2,0.2,0.5,0.3,0.7C49.7,53.8,49.6,53.5,49.4,53.2z"/>
				<path class="st0" d="M54.1,74.7c-0.2-1.5-0.5-2.9-1-4.3C53.5,71.9,53.9,73.3,54.1,74.7c0.2,1.5,0.3,2.8,0.2,4
					c0-0.4,0.2-0.7,0.2-1.1C54.4,76.9,54.2,75.8,54.1,74.7z"/>
				<path class="st0" d="M46.8,41.1c0,4.4,1.3,8.5,2.8,12.3c1.3,4,2.9,7.7,4.5,11.4c0.8,1.8,1.6,3.7,2.2,5.6
					c0.7,1.9,1.1,3.9,1.3,5.9c0.2,1.7,0.2,3.9-0.6,6.3c-0.4,1.2-1,2.3-1.8,3.4c-0.8,1.1-1.8,2-2.9,2.8c-2.2,1.6-4.7,2.4-7,2.9
					c-2.3,0.5-4.5,0.6-6.4,0.8c0.8,0.1,1.5,0.2,2.3,0.2c-1.1,0.1-2.1,0.1-3.1,0.1c-0.8-0.1-1.5-0.2-2.3-0.4l-1.1-0.3
					c-0.4-0.1-0.8-0.2-1.3-0.4c-0.9-0.3-1.8-0.7-2.7-1.4c-1-0.7-1.8-1.5-2.5-2.4c-0.7-0.9-1.2-2.1-1.5-3.1c-0.3-1-0.4-2-0.5-2.9
					c-0.1-1.8,0.1-3.3,0.2-4.7c0.4-2.8,0.8-5.4,1.2-7.9c0.2-1.3,0.3-2.5,0.4-3.8l0.1-0.9l0-0.5c0-0.2,0-0.3,0-0.4l0-0.6
					c0-0.2,0-0.3,0-0.5c0-0.1-0.1-0.3-0.1-0.3c0,0-0.1-0.1-0.1-0.1c-0.1-0.1-0.2-0.1-0.3-0.1c-0.1-0.1-0.2-0.1-0.4-0.1
					c-0.3-0.1-0.7-0.1-1.2-0.1c0,0,0,0,0,0.1c-1,0-2.3,0.2-3.5,0.6c-1.3,0.4-2.6,0.8-3.9,1.4c-2.6,1.2-5.1,2.8-7,4.5
					c-0.2,0.2-0.4,0.4-0.6,0.6c-0.1,0.1-0.1,0.1-0.1,0.2c0,0-0.1,0-0.1,0.1c-0.1,0.1-0.1,0.3-0.2,0.5c-0.1,0.5-0.3,1.3-0.1,2.4
					c0.1,0.8-0.2,0.9-0.2,1.5c0.2,2.5,0.7,4.7,2.1,7.7c0,0-0.2,0.1-0.2,0.1c0.3,0.4,0.5,0.8,0.7,1.2c-1.7-0.9-3.8-4.5-2.4-0.2l0,0
					c-0.1-0.2-0.3-0.4-0.4-0.6l0-0.1l0,0c-0.6-0.9-1-1.4-1.6-1.8c0.3,0.6,0.6,1.2,0.9,1.8c-0.2-0.1-0.3-0.1-0.4,0
					c0,0-0.1-0.1-0.1-0.1c-0.1-0.3-0.2-0.5-0.2-0.5C8.4,81,8.3,81,8.3,81c-1.2-1.5-2.3-4.1-2.5-3.5c0,0.5,0.6,1.7,1.3,3
					c0,0.1,0,0.2,0.1,0.3C6.3,79,6.6,81.1,6,80c-0.7-1.5-1.3-3-1.7-4.7c-0.4-1.7-0.7-3.3-0.6-5c0.1-1.7,0.4-3.4,1.4-4.9
					c0.5-0.8,1.1-1.4,1.7-1.9c0.6-0.5,1.2-1.1,1.8-1.6c1.3-1,2.6-1.9,4-2.7c0.3-0.1,0.5-0.3,0.8-0.4c2.8-1.5,5.7-2.7,9-3.2
					c-0.2,0.1-0.4,0.2-0.6,0.3c1.3-0.2,2.6-0.4,3.9-0.4c1.4,0,2.7,0.1,4.2,0.6c1.8,0.6,3.4,2,4.1,3.8c0.4,0.9,0.6,1.9,0.7,2.7
					c0.1,0.9,0.1,1.8,0,2.6c-0.1,3.2-0.5,6.3-1,9.5c-0.3,1.7-0.5,3.3-0.6,4.8c-0.1,1.5-0.1,3,0.3,3.9c0.2,0.4,0.4,0.8,0.8,1.1
					c0.3,0.3,0.7,0.5,1.3,0.7c0.6,0.2,1.2,0.4,2,0.5c0.7,0.1,1.5,0.2,2.2,0.3c-0.6,0-1.2-0.1-1.9-0.2c-0.6-0.1-1.3-0.2-1.8-0.3
					c-0.5-0.1-1-0.3-1.4-0.5c-0.4-0.2-0.7-0.4-0.9-0.8c-0.2-0.3-0.4-0.6-0.5-1c-0.1-0.4-0.2-0.8-0.2-1.3c0,0.5,0.1,1,0.2,1.4
					c0.1,0.4,0.3,0.7,0.5,1c0.4,0.6,1,1,1.9,1.3c0.9,0.3,2,0.6,3.1,0.7c2.1,0.3,4.2,0.1,5.7-0.5c0.4,0,0.4,0.1,0.7,0.1
					c2.3-0.3,4.5-1.3,5.4-2.7c0,0,0.5-0.7,0.2-0.6c0.5-0.6,0.9-1.4,1.2-2.2c0.3-0.9,0.4-1.8,0.4-2.8c0-0.8-0.2-1.7-0.5-2.5
					c-0.1-0.9-0.4-1.8-0.6-2.6c-0.3-0.8-0.6-1.7-1-2.6c-0.8-1.8-1.7-3.7-2.6-5.7c-1.8-4-3.8-8.3-5.2-13.3c-0.7-2.5-1.1-5.6-1.1-8.4
					c0.3,4.2,1.4,8.1,2.7,11.7c1,3.6,2.3,6.9,3.8,9.3c0.3,0.6,0.6,1.1,0.9,1.7c-1.6-3.5-3.3-7.1-4.7-11c-0.6-2.1-1.1-4.4-1.4-6.8
					c0,0,0,0.1,0,0.1c0.4,1.8,0.9,3.5,1.4,5.2c0.8,3.3,1.9,6.2,3.2,8.5c0.2,0.3,0.3,0.6,0.5,0.8c0.3,0.6,0.6,1.1,0.9,1.7
					c-1-2.2-2-4.4-3-6.7c-0.6-1.4-1.1-2.9-1.6-4.4c-0.2-1-0.5-1.9-0.6-2.9c0,0.1,0.1,0.2,0.1,0.3c0.3,0.9,1.9,2.9,1.8,1.6
					c-0.4-1.6-0.8-3.4-1.1-5.2c-0.3-1.8-0.4-3.6-0.4-5.3c0-1.7,0.2-3.1,0.3-4.1c0.2-1,0.4-1.6,0.4-1.6c0.2-0.2-0.4,2.7-0.3,5.5
					c0,2.8,0.6,5.5,0.6,5.3c0-0.6-0.1-1.3-0.1-1.9c0.1,0.6,0.3,1.2,0.4,1.7c0.2,1.3,0.5,2.9,0.8,3.7c1.1,2.7,2,5.9,3.5,8.8
					c1,1.8,2.2,3.9,3.4,6c0.2-0.1,0.5,1.1,0.5,0.7c0.8,2.1,1.7,4.6,2.4,5.4l0.1,0.2c0,0.2,0.1,0.4,0.2,0.6c0.4,1.9,0.6,3.5,0.8,5.1
					c0.1,1.6,0.2,3.3-0.2,5.1c-0.4,1.3-1,2.5-1.9,3.6c0.6-0.7,1.3-1.9,1.6-2.8c0.1-0.3,0.2-0.6,0.2-0.9c1-3.3,0.5-6.5-0.2-9.3
					c-0.1-0.2-0.3-0.6-0.4-1c0-0.2-0.1-0.4-0.1-0.6c0,0-0.1-0.1-0.1-0.1c-1-2.7-2.3-5.5-3.4-7.6c-1.9-4-3.6-8.5-4.6-13
					c0.7,2.2,1.5,4.2,2.4,6.2c-1.1-2.5-2-4.9-2.6-7.4c-0.1-0.4-0.2-0.8-0.2-1.1c-0.1-0.8-0.3-1.6-0.3-2.4c0,0.8,0.1,1.5,0.2,2.2
					c-0.3-1.5-0.7-2.9-0.8-4.4c-0.2-2-0.1-4.1,0.2-6.2c0.4-2.1,1.1-4.1,2.1-6c2-3.8,5.2-6.8,8.7-9.2c-0.1,0.2-0.2,0.4-0.3,0.6
					c-3.2,2.3-6.1,5.3-7.4,8.4c1.2-1.9,2.1-3.3,3.7-4.8c0,0,0.1,0.1,0,0.2c0.5-0.5,1-1.1,1.6-1.6c0.6-0.5,1.2-1.1,1.8-1.6
					c-0.3,0.5-0.6,1-0.9,1.5c-0.3,0.3-0.6,0.7-1,1c-0.4,0.4-0.8,0.8-1.2,1.3c-1.7,1.9-3.2,3.9-4.2,6.1c-1,2.2-1.6,4.6-1.7,7.1
					c-0.4,4.4,0.4,8.9,1.7,13.1C47.9,49.1,46.9,45.1,46.8,41.1z M7.7,74.7c-0.1-0.4-0.3-0.7-0.4-1.1l0,0.2
					C7.3,74.2,7.5,74.5,7.7,74.7z M8,67.5c-0.6,0.7-0.9,1.9-0.9,3.2c0,1.4,0.4,2.9,0.9,4.4c0,0,0.1,0,0.1,0
					C7.4,72.6,6.9,69.4,8,67.5z M16.6,63.5L16.6,63.5L16.6,63.5L16.6,63.5z M34.3,89c-0.9-0.2-1.9-0.6-2.8-1.3
					c-0.9-0.7-1.7-1.7-2.1-2.9c-0.9-2.4-0.7-4.6-0.6-6.7c0.2-1.3,0-2.5,0.3-4.1c0.3-2,0.3-3.2,0.4-4.8l-0.3,1.1
					c0.3-1.4,0.3-2.4,0.3-3.5c0-0.5,0-1.1,0.1-1.6c0-0.3,0-0.6,0.1-0.9c0-0.3,0.1-0.5,0.1-0.8c-0.1,0-0.2-0.3-0.3-0.6
					c-0.1-0.7-0.2-1.1-0.3-1.5c-0.1-0.4-0.4-0.6-0.7-0.7c-0.3-0.2-0.6-0.3-1.3-0.4c-0.6-0.1-1.2,0-1.9,0.1c-0.3,0-0.9,0.3-1.5,0.5
					c-0.8,0.2-1.6,0.4-2.4,0.6c0,0,0.1,0,0.1,0c0.6-0.2,1.3-0.3,1.9-0.5c0.9-0.3,2-0.4,2.8-0.5c0.4,0,0.8,0,1.2,0.1
					c0.3,0.1,0.5,0.1,0.7,0.2c0.4,0.3,0.8,0.6,1,1.2c0.2,0.7,0.3,1.7,0.2,3.2c-0.1,2.7-0.4,5.4-0.7,8.2c-0.1,1.2-0.1,2.4-0.2,3.7
					c-0.1,1.9-0.3,4.1,0.2,6.4c0.3,1.2,0.8,2.3,1.6,3.2c0.7,0.8,1.6,1.4,2.3,1.6C33,88.7,33.8,89.1,34.3,89z M39.5,86.4
					c-1,0-2-0.1-2.9-0.3c-0.9-0.2-1.8-0.5-2.4-0.9c-1.3-0.8-1.7-2.2-1.6-4c0-1.4,0.3-4.4,0.4-6.9c0.2-2.5,0.1-4.5-0.6-3.8
					c0.3,1.1,0.2,3.2-0.1,5.8c-0.1,1.3-0.3,2.7-0.4,4.1c-0.1,1.4,0.1,2.7,0.5,3.7c0.9,2.1,3.4,2.6,5.1,2.8
					C39.2,87.2,40.1,86.9,39.5,86.4z M50.2,68.7c0.7,1.4,1.3,2.8,1.6,4.3C51.4,71.7,50.8,70.2,50.2,68.7z M53.6,83.6
					c1.1-2.3,1.4-4.8,1.2-7.4c-0.1-1.3-0.3-2.6-0.6-3.8c-0.3-1.2-0.8-2.4-1.3-3.6c-1.6-3.6-2.9-7.8-4.8-11.1l-0.2,0.1l0.2,0.4
					c0.4,1.4,0.8,2.5,1.1,3.6l-0.1-0.2l0.1,0.3c0.3,0.8,0.5,1.5,1,2.4c0.2,0.4,0.4,0.8,0.6,1.2c1,2.3,2,4.6,2.6,6.7
					c0.3,1,0.5,2.2,0.7,3.3c0.1,1.1,0.2,2.2,0.2,3.2c-0.1,1.3-0.2,2.5-0.6,3.6c-0.4,1.1-1,2.2-1.9,3.2
					C52.4,85.1,53.2,84.3,53.6,83.6z"/>
				<path class="st0" d="M47.2,48.5c-0.4-1.7-0.8-3.4-0.9-5.2c-0.2-1.4-0.2-2.8-0.2-4.2c0.2-3.3,1.3-7,3.5-10.1
					c2.1-3.1,5-5.7,7.9-7.7c0-0.3-0.1-0.6-0.5-0.6c-3.4,2.1-6.4,4.9-8.7,8.4c-1.1,1.8-2,3.6-2.6,5.6c-0.6,2-1,4-1.1,6.1l0,0.2
					c0.2,1.8,0.4,4,0.8,6.3c0.4,2.3,1.1,4.6,1.9,6.5c1.7,3.8,3.4,7.4,5.3,11C50.5,59.3,48.2,54.2,47.2,48.5z"/>
				<path class="st0" d="M46.5,92.5c1.9-0.4,3.8-1,5.6-2.1c1.3-0.8,2.4-1.7,3.3-2.8c1-1.1,1.7-2.3,2.2-3.5c1.1-2.5,1.3-5,1.2-7.3
					c0,1.7-0.2,3.5-0.7,5.3c-0.5,1.8-1.5,3.5-2.8,5c-1.3,1.5-2.7,2.6-4.2,3.5C49.6,91.4,48.1,92.1,46.5,92.5z"/>
				<path class="st0" d="M58.3,73.1c0.3,1.2,0.4,2.4,0.5,3.6c0-1.3-0.1-2.5-0.3-3.7l-0.1-0.9l-0.2-0.9c-0.1-0.6-0.3-1.2-0.5-1.8
					c-0.7-2.3-1.6-4.3-2.5-6.3c-1.5-3.3-3-6.4-4.2-9.7c-1.2-3.2-2.2-6.5-2.6-9.9c0-0.4-0.1-0.8-0.1-1.1l0-1.1
					c-0.1,3.1,0.3,6.3,1.2,9.4c0.8,3.1,1.9,6.1,3.1,9c1.2,2.9,2.5,5.8,3.7,8.7c0.6,1.4,1.1,3,1.4,4.6c0.3,1.5,0.6,3.1,0.6,4.7
					c0,0.2,0,0.5,0,0.8c0.2-3.1-0.2-5.9-1-8.8c-0.9-2.7-2-5.2-3-7.6c0.8,1.7,1.6,3.4,2.3,5.2c0.4,0.9,0.7,1.8,1,2.8
					C57.9,71.1,58.1,72.2,58.3,73.1z"/>
				<path class="st0" d="M47.7,50.1c-0.1-0.4-0.2-0.8-0.2-1.1c-0.1-0.4-0.3-0.9-0.3-1.3c0,0.3,0.1,0.5,0.1,0.8
					C47.4,49.1,47.5,49.6,47.7,50.1z"/>
				<path class="st0" d="M49.2,61.8l0,0.1c0.5,1.2,1,2.3,1.6,3.5c0.8,1.6,1.6,3.3,2.2,5C52,67.4,50.5,64.2,49.2,61.8z"/>
				<path class="st0" d="M50.9,72.5c0.1,0.3,0.2,0.9,0.2,1.2l0.2,0.6c0-0.3-0.1-0.6-0.1-0.9L50.9,72.5z"/>
				<path class="st0" d="M44.4,85.8c3-0.5,5.3-1.9,6.4-3.7c1.1-1.8,1.3-4.4,0.9-7.1c-0.1-0.3-0.2-0.5-0.3-0.8c0.2,1.8,0.2,3.6,0,5
					c-0.3,1.4-0.7,2.6-1.5,3.6c-0.3,0.4-0.8,1.1-1.3,1.4c-2.4,1.3-5.6,1.9-8.8,1.8c1.5,0.1,3.1,0.1,4.6-0.2L44.4,85.8z"/>
			</g>
		</g>
	</g>
</g>
</svg>
